<svg xmlns="http://www.w3.org/2000/svg" viewBox="0 0 120 120">
  <defs>
    <radialGradient id="bg" cx="50%" cy="32%" r="75%">
      <stop offset="0%" stop-color="#26262c"/>
      <stop offset="55%" stop-color="#15151a"/>
      <stop offset="100%" stop-color="#08080b"/>
    </radialGradient>
    <linearGradient id="edge" x1="0%" y1="0%" x2="0%" y2="100%">
      <stop offset="0%" stop-color="#3a3a42" stop-opacity="0.9"/>
      <stop offset="50%" stop-color="#1a1a20" stop-opacity="0.4"/>
      <stop offset="100%" stop-color="#0a0a0d" stop-opacity="0.9"/>
    </linearGradient>
    <linearGradient id="bar" x1="0%" y1="0%" x2="0%" y2="100%">
      <stop offset="0%" stop-color="#ffe28a"/>
      <stop offset="45%" stop-color="#f5b942"/>
      <stop offset="100%" stop-color="#b87412"/>
    </linearGradient>
    <linearGradient id="barGlow" x1="0%" y1="0%" x2="0%" y2="100%">
      <stop offset="0%" stop-color="#fff2c0"/>
      <stop offset="100%" stop-color="#ffb84d"/>
    </linearGradient>
    <radialGradient id="sphere" cx="38%" cy="32%" r="78%">
      <stop offset="0%" stop-color="#4a4a52"/>
      <stop offset="35%" stop-color="#1d1d22"/>
      <stop offset="75%" stop-color="#0a0a0d"/>
      <stop offset="100%" stop-color="#000000"/>
    </radialGradient>
    <radialGradient id="rim" cx="50%" cy="50%" r="50%">
      <stop offset="80%" stop-color="#000000" stop-opacity="0"/>
      <stop offset="95%" stop-color="#3a3a40" stop-opacity="0.6"/>
      <stop offset="100%" stop-color="#000000" stop-opacity="0"/>
    </radialGradient>
    <radialGradient id="crescent" cx="50%" cy="20%" r="65%">
      <stop offset="0%" stop-color="#fff5cc" stop-opacity="1"/>
      <stop offset="35%" stop-color="#ffd24a" stop-opacity="0.95"/>
      <stop offset="70%" stop-color="#f5a623" stop-opacity="0.6"/>
      <stop offset="100%" stop-color="#a85f0a" stop-opacity="0"/>
    </radialGradient>
    <radialGradient id="spec" cx="38%" cy="26%" r="38%">
      <stop offset="0%" stop-color="#ffffff" stop-opacity="0.55"/>
      <stop offset="60%" stop-color="#ffffff" stop-opacity="0.05"/>
      <stop offset="100%" stop-color="#ffffff" stop-opacity="0"/>
    </radialGradient>
    <filter id="halo" x="-50%" y="-50%" width="200%" height="200%">
      <feGaussianBlur stdDeviation="3.5"/>
    </filter>
    <filter id="glow" x="-30%" y="-30%" width="160%" height="160%">
      <feGaussianBlur stdDeviation="1.4"/>
    </filter>
  </defs>

  <rect x="3" y="3" width="114" height="114" rx="26" ry="26" fill="url(#bg)"/>
  <rect x="3" y="3" width="114" height="114" rx="26" ry="26" fill="none" stroke="url(#edge)" stroke-width="1"/>

  <rect x="24.00" y="57.41" width="2.8" height="5.18" rx="1.40" fill="url(#barGlow)" opacity="0.55"/>
  <rect x="24.00" y="58.41" width="2.8" height="3.18" rx="1.40" fill="url(#bar)" opacity="0.85"/>
  <rect x="24.00" y="58.41" width="2.8" height="3.18" rx="1.40" fill="url(#bar)" opacity="0.87"/>
  <rect x="27.70" y="54.27" width="2.8" height="11.47" rx="1.40" fill="url(#barGlow)" opacity="0.55"/>
  <rect x="27.70" y="55.27" width="2.8" height="9.47" rx="1.40" fill="url(#bar)" opacity="0.85"/>
  <rect x="27.70" y="55.27" width="2.8" height="9.47" rx="1.40" fill="url(#bar)" opacity="0.94"/>
  <rect x="31.40" y="51.12" width="2.8" height="17.76" rx="1.40" fill="url(#barGlow)" opacity="0.55"/>
  <rect x="31.40" y="52.12" width="2.8" height="15.76" rx="1.40" fill="url(#bar)" opacity="0.85"/>
  <rect x="31.40" y="52.12" width="2.8" height="15.76" rx="1.40" fill="url(#bar)" opacity="1.00"/>
  <rect x="35.10" y="47.97" width="2.8" height="24.05" rx="1.40" fill="url(#barGlow)" opacity="0.55"/>
  <rect x="35.10" y="48.97" width="2.8" height="22.05" rx="1.40" fill="url(#bar)" opacity="0.85"/>
  <rect x="35.10" y="48.97" width="2.8" height="22.05" rx="1.40" fill="url(#bar)" opacity="1.00"/>
  <rect x="38.80" y="44.83" width="2.8" height="30.34" rx="1.40" fill="url(#barGlow)" opacity="0.55"/>
  <rect x="38.80" y="45.83" width="2.8" height="28.34" rx="1.40" fill="url(#bar)" opacity="0.85"/>
  <rect x="38.80" y="45.83" width="2.8" height="28.34" rx="1.40" fill="url(#bar)" opacity="1.00"/>
  <rect x="42.50" y="41.68" width="2.8" height="36.63" rx="1.40" fill="url(#barGlow)" opacity="0.55"/>
  <rect x="42.50" y="42.68" width="2.8" height="34.63" rx="1.40" fill="url(#bar)" opacity="0.85"/>
  <rect x="42.50" y="42.68" width="2.8" height="34.63" rx="1.40" fill="url(#bar)" opacity="1.00"/>
  <rect x="46.20" y="38.54" width="2.8" height="42.92" rx="1.40" fill="url(#barGlow)" opacity="0.55"/>
  <rect x="46.20" y="39.54" width="2.8" height="40.92" rx="1.40" fill="url(#bar)" opacity="0.85"/>
  <rect x="46.20" y="39.54" width="2.8" height="40.92" rx="1.40" fill="url(#bar)" opacity="1.00"/>
  <rect x="49.90" y="35.39" width="2.8" height="49.21" rx="1.40" fill="url(#barGlow)" opacity="0.55"/>
  <rect x="49.90" y="36.39" width="2.8" height="47.21" rx="1.40" fill="url(#bar)" opacity="0.85"/>
  <rect x="49.90" y="36.39" width="2.8" height="47.21" rx="1.40" fill="url(#bar)" opacity="1.00"/>
  <rect x="53.60" y="32.25" width="2.8" height="55.50" rx="1.40" fill="url(#barGlow)" opacity="0.55"/>
  <rect x="53.60" y="33.25" width="2.8" height="53.50" rx="1.40" fill="url(#bar)" opacity="0.85"/>
  <rect x="53.60" y="33.25" width="2.8" height="53.50" rx="1.40" fill="url(#bar)" opacity="1.00"/>
  <rect x="57.30" y="29.10" width="2.8" height="61.79" rx="1.40" fill="url(#barGlow)" opacity="0.55"/>
  <rect x="57.30" y="30.10" width="2.8" height="59.79" rx="1.40" fill="url(#bar)" opacity="0.85"/>
  <rect x="57.30" y="30.10" width="2.8" height="59.79" rx="1.40" fill="url(#bar)" opacity="1.00"/>
  <rect x="61.00" y="30.04" width="2.8" height="59.92" rx="1.40" fill="url(#barGlow)" opacity="0.55"/>
  <rect x="61.00" y="31.04" width="2.8" height="57.92" rx="1.40" fill="url(#bar)" opacity="0.85"/>
  <rect x="61.00" y="31.04" width="2.8" height="57.92" rx="1.40" fill="url(#bar)" opacity="1.00"/>
  <rect x="64.70" y="33.18" width="2.8" height="53.63" rx="1.40" fill="url(#barGlow)" opacity="0.55"/>
  <rect x="64.70" y="34.18" width="2.8" height="51.63" rx="1.40" fill="url(#bar)" opacity="0.85"/>
  <rect x="64.70" y="34.18" width="2.8" height="51.63" rx="1.40" fill="url(#bar)" opacity="1.00"/>
  <rect x="68.40" y="36.33" width="2.8" height="47.34" rx="1.40" fill="url(#barGlow)" opacity="0.55"/>
  <rect x="68.40" y="37.33" width="2.8" height="45.34" rx="1.40" fill="url(#bar)" opacity="0.85"/>
  <rect x="68.40" y="37.33" width="2.8" height="45.34" rx="1.40" fill="url(#bar)" opacity="1.00"/>
  <rect x="72.10" y="39.48" width="2.8" height="41.05" rx="1.40" fill="url(#barGlow)" opacity="0.55"/>
  <rect x="72.10" y="40.48" width="2.8" height="39.05" rx="1.40" fill="url(#bar)" opacity="0.85"/>
  <rect x="72.10" y="40.48" width="2.8" height="39.05" rx="1.40" fill="url(#bar)" opacity="1.00"/>
  <rect x="75.80" y="42.62" width="2.8" height="34.76" rx="1.40" fill="url(#barGlow)" opacity="0.55"/>
  <rect x="75.80" y="43.62" width="2.8" height="32.76" rx="1.40" fill="url(#bar)" opacity="0.85"/>
  <rect x="75.80" y="43.62" width="2.8" height="32.76" rx="1.40" fill="url(#bar)" opacity="1.00"/>
  <rect x="79.50" y="45.77" width="2.8" height="28.47" rx="1.40" fill="url(#barGlow)" opacity="0.55"/>
  <rect x="79.50" y="46.77" width="2.8" height="26.47" rx="1.40" fill="url(#bar)" opacity="0.85"/>
  <rect x="79.50" y="46.77" width="2.8" height="26.47" rx="1.40" fill="url(#bar)" opacity="1.00"/>
  <rect x="83.20" y="48.91" width="2.8" height="22.18" rx="1.40" fill="url(#barGlow)" opacity="0.55"/>
  <rect x="83.20" y="49.91" width="2.8" height="20.18" rx="1.40" fill="url(#bar)" opacity="0.85"/>
  <rect x="83.20" y="49.91" width="2.8" height="20.18" rx="1.40" fill="url(#bar)" opacity="1.00"/>
  <rect x="86.90" y="52.05" width="2.8" height="15.89" rx="1.40" fill="url(#barGlow)" opacity="0.55"/>
  <rect x="86.90" y="53.05" width="2.8" height="13.89" rx="1.40" fill="url(#bar)" opacity="0.85"/>
  <rect x="86.90" y="53.05" width="2.8" height="13.89" rx="1.40" fill="url(#bar)" opacity="0.99"/>
  <rect x="90.60" y="55.20" width="2.8" height="9.60" rx="1.40" fill="url(#barGlow)" opacity="0.55"/>
  <rect x="90.60" y="56.20" width="2.8" height="7.60" rx="1.40" fill="url(#bar)" opacity="0.85"/>
  <rect x="90.60" y="56.20" width="2.8" height="7.60" rx="1.40" fill="url(#bar)" opacity="0.92"/>

  <circle cx="60" cy="60" r="22" fill="url(#sphere)"/>
  <circle cx="60" cy="60" r="22.5" fill="url(#rim)"/>
  <path d="M 40 62 C 42 78, 56 84, 62 84 C 70 84, 80 78, 80 60 C 78 70, 70 76, 60 76 C 50 76, 44 70, 40 62 Z" fill="url(#crescent)" opacity="1"/>
  <ellipse cx="60" cy="74" rx="22" ry="9" fill="url(#crescent)" opacity="0.45"/>
  <path d="M 44 66 C 48 76, 58 80, 64 80" stroke="#fff0b0" stroke-width="1.2" stroke-linecap="round" fill="none" opacity="0.85"/>
  <ellipse cx="52" cy="50" rx="9" ry="6" fill="url(#spec)"/>
  <circle cx="51" cy="48" r="1.6" fill="#ffffff" opacity="0.7"/>
</svg>